<?xml version="1.0" encoding="UTF-8"?>
<svg id="Capa_2" data-name="Capa 2" xmlns="http://www.w3.org/2000/svg" xmlns:xlink="http://www.w3.org/1999/xlink" viewBox="0 0 1921 1081">
  <defs>
    <style>
      .cls-1 {
        fill: url(#Degradado_sin_nombre_90);
      }

      .cls-2 {
        fill: url(#Degradado_sin_nombre_17);
        stroke: #000;
        stroke-miterlimit: 10;
      }

      .cls-3 {
        fill: url(#Degradado_sin_nombre_58);
      }

      .cls-4 {
        fill: url(#Degradado_sin_nombre_98);
      }

      .cls-5 {
        fill: none;
      }

      .cls-6 {
        clip-path: url(#clippath-1);
      }

      .cls-7 {
        fill: url(#Degradado_sin_nombre_64);
      }

      .cls-8 {
        fill: url(#Nueva_muestra_de_degradado_2);
      }

      .cls-9 {
        fill: url(#Degradado_sin_nombre_21);
      }

      .cls-10 {
        fill: url(#Degradado_sin_nombre_77);
      }

      .cls-11 {
        fill: url(#Degradado_sin_nombre_215);
      }

      .cls-12 {
        fill: url(#Degradado_sin_nombre_22);
      }

      .cls-13 {
        clip-path: url(#clippath-2);
      }

      .cls-14 {
        fill: url(#Degradado_sin_nombre_40);
      }

      .cls-15 {
        fill: url(#Degradado_sin_nombre_51);
      }

      .cls-16 {
        fill: url(#Degradado_sin_nombre_29);
      }

      .cls-17 {
        clip-path: url(#clippath);
      }

      .cls-18 {
        fill: url(#Nueva_muestra_de_degradado_1);
      }
    </style>
    <linearGradient id="Degradado_sin_nombre_17" data-name="Degradado sin nombre 17" x1="960.5" y1=".5" x2="960.5" y2="1080.5" gradientUnits="userSpaceOnUse">
      <stop offset="0" stop-color="#2e2e2e"/>
      <stop offset="1" stop-color="#0c0c0c"/>
    </linearGradient>
    <clipPath id="clippath">
      <rect class="cls-5" x=".5" y=".5" width="1920" height="1080"/>
    </clipPath>
    <linearGradient id="Degradado_sin_nombre_21" data-name="Degradado sin nombre 21" x1="477.21" y1="601.56" x2="643.31" y2="709.59" gradientUnits="userSpaceOnUse">
      <stop offset="0" stop-color="#1b1b1b"/>
      <stop offset="1" stop-color="#505050"/>
    </linearGradient>
    <linearGradient id="Degradado_sin_nombre_22" data-name="Degradado sin nombre 22" x1="347.58" y1="859.11" x2="430.54" y2="982.84" gradientUnits="userSpaceOnUse">
      <stop offset="0" stop-color="#131313"/>
      <stop offset=".98" stop-color="#363636"/>
    </linearGradient>
    <linearGradient id="Degradado_sin_nombre_29" data-name="Degradado sin nombre 29" x1="647.75" y1="893.12" x2="756.24" y2="1071.13" gradientUnits="userSpaceOnUse">
      <stop offset="0" stop-color="#2e2e2e" stop-opacity="0"/>
      <stop offset="1" stop-color="#272727"/>
    </linearGradient>
    <linearGradient id="Degradado_sin_nombre_51" data-name="Degradado sin nombre 51" x1="13.97" y1="89.62" x2="414.1" y2="560.99" gradientUnits="userSpaceOnUse">
      <stop offset="0" stop-color="#2e2e2e" stop-opacity="0"/>
      <stop offset=".06" stop-color="#2f2f2f" stop-opacity=".23"/>
      <stop offset=".21" stop-color="#313131" stop-opacity=".65"/>
      <stop offset=".35" stop-color="#333" stop-opacity=".91"/>
      <stop offset=".48" stop-color="#343434"/>
    </linearGradient>
    <linearGradient id="Degradado_sin_nombre_58" data-name="Degradado sin nombre 58" x1="1278.93" y1="777.76" x2="1328.23" y2="828.5" gradientUnits="userSpaceOnUse">
      <stop offset="0" stop-color="#2e2e2e" stop-opacity="0"/>
      <stop offset="1" stop-color="#343434"/>
    </linearGradient>
    <linearGradient id="Degradado_sin_nombre_64" data-name="Degradado sin nombre 64" x1="1686.63" y1="798.97" x2="1910.08" y2="983.4" gradientUnits="userSpaceOnUse">
      <stop offset="0" stop-color="#2e2e2e" stop-opacity="0"/>
      <stop offset="1" stop-color="#343434"/>
    </linearGradient>
    <linearGradient id="Degradado_sin_nombre_77" data-name="Degradado sin nombre 77" x1="1752.57" y1="675.54" x2="1823.01" y2="844.74" gradientUnits="userSpaceOnUse">
      <stop offset="0" stop-color="#2e2e2e" stop-opacity="0"/>
      <stop offset=".57" stop-color="#343434"/>
    </linearGradient>
    <linearGradient id="Degradado_sin_nombre_40" data-name="Degradado sin nombre 40" x1="1212.61" y1="967.83" x2="1299.6" y2="1065.36" gradientUnits="userSpaceOnUse">
      <stop offset="0" stop-color="#2d2d2d" stop-opacity="0"/>
      <stop offset=".51" stop-color="#272727"/>
    </linearGradient>
    <clipPath id="clippath-1">
      <rect class="cls-5" x=".5" y=".5" width="1920" height="1080"/>
    </clipPath>
    <linearGradient id="Nueva_muestra_de_degradado_1" data-name="Nueva muestra de degradado 1" x1="185.78" y1="-86.84" x2="185.78" y2="1072.15" gradientUnits="userSpaceOnUse">
      <stop offset="0" stop-color="#4d4d4d" stop-opacity=".3"/>
      <stop offset=".48" stop-color="#434343"/>
    </linearGradient>
    <linearGradient id="Degradado_sin_nombre_90" data-name="Degradado sin nombre 90" x1="1329.81" y1="-62.5" x2="1708.34" y2="425.74" gradientUnits="userSpaceOnUse">
      <stop offset="0" stop-color="#4d4d4d" stop-opacity=".3"/>
      <stop offset=".48" stop-color="#434343"/>
    </linearGradient>
    <clipPath id="clippath-2">
      <rect class="cls-5" x=".5" y=".5" width="1920" height="1080"/>
    </clipPath>
    <radialGradient id="Nueva_muestra_de_degradado_2" data-name="Nueva muestra de degradado 2" cx="1028.11" cy="516.15" fx="1261.47" fy="868.65" r="593.26" gradientTransform="translate(101.39 -103.86) rotate(11.02) scale(1 .84)" gradientUnits="userSpaceOnUse">
      <stop offset="0" stop-color="#777"/>
      <stop offset=".17" stop-color="#707070"/>
      <stop offset=".4" stop-color="#5e5e5e"/>
      <stop offset=".68" stop-color="#414141"/>
      <stop offset=".78" stop-color="#353535"/>
    </radialGradient>
    <radialGradient id="Degradado_sin_nombre_215" data-name="Degradado sin nombre 215" cx="1421.27" cy="148.67" fx="915.33" fy="6.38" r="525.57" gradientTransform="translate(0 27.78) scale(1 .81)" gradientUnits="userSpaceOnUse">
      <stop offset="0" stop-color="#3d3c3c" stop-opacity="0"/>
      <stop offset=".13" stop-color="#4f4f4e" stop-opacity=".23"/>
      <stop offset=".35" stop-color="#6a6b69" stop-opacity=".56"/>
      <stop offset=".54" stop-color="#7d807c" stop-opacity=".8"/>
      <stop offset=".69" stop-color="#898d88" stop-opacity=".95"/>
      <stop offset=".8" stop-color="#8e928d"/>
    </radialGradient>
    <radialGradient id="Degradado_sin_nombre_98" data-name="Degradado sin nombre 98" cx="658.28" cy="171.1" fx="658.28" fy="71.55" r="358.04" gradientTransform="translate(0 40.48) scale(1 .76)" gradientUnits="userSpaceOnUse">
      <stop offset=".19" stop-color="#919191"/>
      <stop offset=".54" stop-color="#8a8a8a"/>
      <stop offset=".78" stop-color="#838383"/>
    </radialGradient>
  </defs>
  <g id="Capa_1-2" data-name="Capa 1">
    <rect class="cls-2" x=".5" y=".5" width="1920" height="1080"/>
    <g class="cls-17">
      <g>
        <path class="cls-9" d="M492.83,564.67c-36.94,27.39,49.64,221.03,146,190,78.89-88.24-104.78-222.48-146-190Z"/>
        <path class="cls-12" d="M328.83,842.17c-42.69,44.8,29.94,154.06,91,128.5,23.24-14.65,21.95-65.7-1-97-19.75-26.94-79.83-39.33-90-31.5Z"/>
        <path class="cls-16" d="M608.83,871.67c50.81-42.94,157.12-1.75,169,62,1.57,20.56-11.86,26.51-11,55,.76,25.05,11.53,33.23,6,47-7.3,18.2-33.93,23.42-42,25-92,23.91-198.51-105.43-122-189Z"/>
        <path class="cls-15" d="M750.5-40.67c13.28,87.34-367.18,227.2-364,389.33.94,47.69,8,90.67,8,90.67,16.21,98.65,48.63,143.46,33.33,157.33-21.05,19.09-82.23-66.04-164-58.67-86.8,7.82-172,117.64-176,214.67,0,39.31,38.52,224.96-10.67,260C-246.13,1112.88-385.72,243.66-36.18-40.65c281.25-235.84,772.33-94.45,786.68-.01Z"/>
        <path class="cls-3" d="M1281.17,779.33c-15.48,14.84-9.01,44.01,6.67,56,20.7,13.47,43.29,6.06,53.33-13.33,14.13-33.44-33.12-67.18-60-42.67Z"/>
        <path class="cls-7" d="M1591.83,742c-51.04,101.02,100.42,293.93,259.99,253.34,10.97-3.42,70.99-22.14,85.34-69.34,30.43-128.74-246.75-280.18-345.33-184Z"/>
        <path class="cls-10" d="M1723.83,672.67c-45.62,44.06,13.47,214.49,108,165.33,72.11-59.32-9.06-221.89-108-165.33Z"/>
        <path class="cls-14" d="M1131.83,978c-7.07,30.35,78.23,76.91,146.67,90.67,83.63,23.85,93.29-34.73,42.67-93.34-55.68-55.68-181.43-31.24-189.33,2.67Z"/>
      </g>
    </g>
    <g class="cls-6">
      <g>
        <path class="cls-18" d="M319.83-59.33c87.15,148.71-169.22,347.77,88.02,593.99,18.95,14.78,41.06,27.45,51.98,56.01,15.14,39.6,1.05,89.54-18,94-2.85.67-7.46.7-52-32-53.47-39.92-31.97-18.41-50,28-45.1,75.04-54.24,4.6-82,4-10.29.38-21.39,9.6-24,20-4.94,19.67,23.95,29.63,34,64,.87,2.98,13,46.6-12,66-18.65,14.47-51.17,10.18-64-6-15.43-19.46,3.21-49.08-10-58-9.28-6.27-29.73.73-38,14-16.61,26.64,18.01,75.19,30,92,32.72,45.88,53.29,42.45,70,78,2.23,4.74,29.5,64.79-2,98-22.91,24.14-68.74,25.51-94,6-29.5-22.78-14.96-61.71-32-128-13.78-53.59-34.5-71.79-70-132C-57.98,659.78-160.92,134.39-40.15,74.66c28.23-6.1,52.94,51.87,83.98,42,37.05-11.77,13.74-98.09,62-152,49.06-54.81,167.19-70.67,214-24Z"/>
        <path class="cls-1" d="M1991.83,274.67c-49.81,176.28-283.74,450.19-604.01,331.98-54.13-13.88-419.3-107.61-485.99-391.98-36.84-157.07,21.71-353.87,112-376,82.01-20.1,133.32,117.87,384,242,106.58,52.77,169.22,82.66,236,60,158.66-77.16,137.35-285.04,398-184"/>
      </g>
    </g>
    <g class="cls-13">
      <g>
        <path class="cls-8" d="M1049.83,102.67c-261.58,72.62-535.37,376.19-335.99,650,66.24,100.3,181.86,173.14,239.99,134,5.72-8.98-.95-17.9,0-44.01,1.3-38.77,9.69-55.95,34-10,69.42,128.65,282.39,129.24,202,2-30.71-40.62-82.33-33.27-88-62-2.39-12.12,4.5-25.04,12-32,20.64-19.16,49.05,3.88,88-12,6.65-2.71,34.19-13.94,42-38,6.8-20.96-7.22-33.65,2-58,4.24-11.21,14.1-26.71,24-26,11.42.82,11.16,22.37,28,40,66.2,56.85,119.25,1.75,112-68,18.22-51.89-208.18-129.21-304.01-229.99-38.94-55.89-32.53-127.14-21.99-176.01"/>
        <path class="cls-11" d="M1843.83-43.33c98.02,49.1,20.7,400.3-138.01,465.99-276.19,146.76-992.02-204.22-667.99-499.98,105.12-97.66,284.6-103.62,322.01-44.01,20.4,32.51-15.83,61.61,2,112,24.09,68.1,124.21,110.96,208,108,155.44-5.5,215.74-167.35,274-142Z"/>
        <path class="cls-4" d="M469.83-125.33c-170.36,97.34-250.08,451.62-60,346,10.05-2.9,51.27-105.69,82-104,19.94,1.24,32.4,37.23,34,42,26.99,80.56-39.2,194.27-60,230-19.6,32.28-38.42,83.86,10,126,35.92,23.63,98.99-2.41,134-38,53.6-54.49,60.64-150.92,52-212-6.53-23.91-15.75-145.48,30-166,16.35-1.68,20.51,30.5,52,42,19.57,7.15,45.87,4.91,64-8,24.74-17.63,21.69-46.2,42-50,9.73-1.82,20.71,2.81,26,10,6.85,9.3,3.05,21.37,2,30-4.2,34.6,27.84,79.8,56,84,32.41,4.83,69.75-43.15,82-86,22.23-281.01-339.53-373.49-546-246Z"/>
      </g>
    </g>
  </g>
</svg>